# xmcd
#
# Track frame offsets:
#	150
#	11770
#	23179
#	33485
#	44298
#	54433
#	66387
#	77880
#	89201
#	98350
#	107396
#	117042
#	128232
#	140440
#	153170
#	163572
#	172605
#	182256
#	193724
#	203785
#	213979
#	226152
#	235632
#
# Disc length: 3293 seconds
#
# Revision: 0
# Processed by: cddbd v1.5.2PL0 Copyright (c) Steve Scherf et al.
# Submitted via: audiograbber 1.83.01
#
DISCID=1f0cdb17
DTITLE=jim reeves - jim reeves sings (1955) in suid africa (1962) singles (1954
DTITLE=Various Artist - 1962)
DYEAR=2014
DGENRE=Country
TTITLE0=i'll follow you
TTITLE1=give me one more kiss
TTITLE2=my rambling heart
TTITLE3=red eyed and rowdy
TTITLE4=beatin' on a ding dong
TTITLE5=the wilder your heart beats
TTITLE6=are you the on (with alvadean coker)
TTITLE7=tahiti
TTITLE8=bolandse nooientjie (beautiful dreamer)
TTITLE9=ek verlang na jou
TTITLE10=die ou kalahari
TTITLE11=i love you (with ginny wright) (1954)
TTITLE12=am i losing you (1957)
TTITLE13=four walls (1957)
TTITLE14=two shadows on your window (1957)
TTITLE15=overnight (1958)
TTITLE16=blue boy (1958)
TTITLE17=i missed me (1960)
TTITLE18=what would you do (1961)
TTITLE19=losing your love (1961)
TTITLE20=a letter to my heart (1962)
TTITLE21=i'm gonna change everything (1962)
TTITLE22=adios maigo (1962)
EXTD=
EXTT0=
EXTT1=
EXTT2=
EXTT3=
EXTT4=
EXTT5=
EXTT6=
EXTT7=
EXTT8=
EXTT9=
EXTT10=
EXTT11=
EXTT12=
EXTT13=
EXTT14=
EXTT15=
EXTT16=
EXTT17=
EXTT18=
EXTT19=
EXTT20=
EXTT21=
EXTT22=
PLAYORDER=
